<svg width="88" height="90" viewBox="0 0 88 90" fill="none" xmlns="http://www.w3.org/2000/svg">
<path d="M43.9839 34.1039C41.8594 34.1039 39.7825 34.7522 38.016 35.967C36.2496 37.1817 34.8727 38.9083 34.0597 40.9284C33.2467 42.9484 33.034 45.1712 33.4484 47.3157C33.8629 49.4602 34.886 51.43 36.3883 52.9761C37.8905 54.5222 39.8046 55.575 41.8883 56.0016C43.972 56.4282 46.1318 56.2092 48.0946 55.3725C50.0575 54.5358 51.7351 53.1188 52.9154 51.3008C54.0958 49.4828 54.7258 47.3454 54.7258 45.159C54.7258 43.7072 54.4479 42.2696 53.9081 40.9284C53.3683 39.5871 52.577 38.3684 51.5796 37.3418C50.5821 36.3153 49.3979 35.501 48.0946 34.9454C46.7914 34.3898 45.3946 34.1039 43.9839 34.1039ZM86.9947 23.1825C86.9719 19.7401 86.356 16.3291 85.1755 13.1081C84.3061 10.7512 82.961 8.61075 81.2288 6.82808C79.4966 5.04541 77.4168 3.66104 75.1267 2.7663C71.9969 1.55142 68.6826 0.917521 65.3377 0.894069C59.7502 0.582031 58.1043 0.582031 43.9839 0.582031C29.8635 0.582031 28.2176 0.582031 22.6301 0.894069C19.2852 0.917521 15.9709 1.55142 12.8412 2.7663C10.551 3.66104 8.47118 5.04541 6.73901 6.82808C5.00685 8.61075 3.6617 10.7512 2.79231 13.1081C1.61184 16.3291 0.995907 19.7401 0.97312 23.1825C0.669922 28.933 0.669923 30.6269 0.669923 45.159C0.669923 59.691 0.669923 61.385 0.973121 67.1354C1.01974 70.5899 1.63485 74.0113 2.79231 77.2543C3.65784 79.6005 5.00188 81.7286 6.73388 83.4951C8.45862 85.2885 10.5429 86.6728 12.8412 87.5516C15.9709 88.7665 19.2852 89.4004 22.6301 89.4238C28.2176 89.7359 29.8636 89.7359 43.9839 89.7359C58.1043 89.7359 59.7502 89.7359 65.3377 89.4238C68.6826 89.4004 71.9969 88.7665 75.1267 87.5516C77.425 86.6728 79.5092 85.2885 81.2339 83.4951C82.9659 81.7286 84.31 79.6005 85.1755 77.2543C86.3548 74.0175 86.9706 70.5922 86.9947 67.1354C87.2979 61.385 87.2979 59.691 87.2979 45.159C87.2979 30.6269 87.2979 28.933 86.9947 23.1825ZM75.9929 58.8441C75.8539 61.5949 75.2835 64.3045 74.3037 66.8679C73.4628 69.0062 72.2128 70.9487 70.6279 72.5798C69.0429 74.2109 67.1555 75.4974 65.0778 76.3628C62.5635 77.3149 59.916 77.8418 57.238 77.923L30.7298 77.923C28.0519 77.8418 25.4043 77.3149 22.89 76.3628C20.7421 75.5413 18.8024 74.2308 17.2159 72.5292C15.6465 70.93 14.4344 68.9981 13.6641 66.8679C12.7353 64.283 12.2374 61.5551 12.1914 58.7995L12.1914 31.5184C12.2374 28.7628 12.7353 26.0349 13.6641 23.45C14.4623 21.2394 15.7357 19.2432 17.3891 17.6104C18.9499 16.004 20.8251 14.7579 22.89 13.9551C25.4043 13.003 28.0519 12.4761 30.7298 12.3949L57.238 12.3949C59.916 12.4761 62.5635 13.003 65.0778 13.9551C67.2257 14.7766 69.1655 16.0871 70.752 17.7887C72.3214 19.3879 73.5334 21.3198 74.3037 23.45C75.2289 26.0376 75.7408 28.7624 75.8197 31.5184L75.8197 45.159C75.8197 54.3418 76.1229 55.2779 75.9929 58.7995L75.9929 58.8441ZM69.0627 25.6788C68.547 24.2389 67.7339 22.9313 66.6795 21.8462C65.6251 20.761 64.3545 19.9242 62.9554 19.3935C61.0343 18.7082 59.011 18.3762 56.9781 18.4128L30.9897 18.4128C28.9464 18.4334 26.9228 18.8257 25.0124 19.5718C23.6347 20.0784 22.3776 20.8811 21.3246 21.9264C20.2716 22.9716 19.4468 24.2356 18.9051 25.6343C18.2761 27.6196 17.9688 29.6979 17.9955 31.7859L17.9955 58.532C18.0385 60.6325 18.419 62.7111 19.1217 64.6836C19.6374 66.1235 20.4505 67.4312 21.5049 68.5163C22.5593 69.6014 23.8298 70.4382 25.229 70.969C27.077 71.6685 29.0218 72.0597 30.9897 72.128L56.9781 72.128C59.0214 72.1074 61.045 71.7151 62.9554 70.969C64.3545 70.4382 65.6251 69.6014 66.6795 68.5163C67.7339 67.4312 68.547 66.1235 69.0627 64.6836C69.7876 62.7175 70.1689 60.6349 70.1889 58.532L70.1889 31.7859C70.1901 29.6809 69.8082 27.5944 69.0627 25.6343L69.0627 25.6788ZM43.9839 62.1873C41.8131 62.1873 39.6636 61.7466 37.6586 60.8903C35.6536 60.034 33.8324 58.779 32.2994 57.1971C30.7665 55.6153 29.5518 53.7378 28.725 51.6721C27.8982 49.6063 27.4756 47.393 27.4813 45.159C27.4813 41.7892 28.4528 38.4951 30.2728 35.6939C32.0928 32.8926 34.6795 30.7101 37.7054 29.4226C40.7313 28.135 44.0604 27.8004 47.2711 28.4611C50.4819 29.1218 53.43 30.748 55.7423 33.1339C58.0546 35.5198 59.627 38.5582 60.2605 41.8643C60.894 45.1704 60.5602 48.5956 59.3012 51.7064C58.0422 54.8171 55.9148 57.4735 53.1881 59.3392C50.4615 61.205 47.2582 62.1962 43.9839 62.1873ZM61.3095 31.4738C60.352 31.3695 59.4659 30.9042 58.8219 30.1676C58.1779 29.431 57.8216 28.4751 57.8216 27.4842C57.8216 26.4933 58.1779 25.5374 58.8219 24.8008C59.4659 24.0642 60.352 23.5989 61.3095 23.4946C62.267 23.5989 63.1531 24.0642 63.7971 24.8008C64.4411 25.5374 64.7974 26.4933 64.7974 27.4842C64.7974 28.4751 64.4411 29.431 63.7971 30.1676C63.1531 30.9042 62.267 31.3695 61.3095 31.4738Z" fill="black"/>
</svg>
